<svg width="20" height="20" viewBox="0 0 20 20" fill="none" xmlns="http://www.w3.org/2000/svg">
<rect x="4" y="13" width="3" height="3" fill="white"/>
<rect x="2" y="12" width="6" height="2" fill="white"/>
<rect x="1" y="7" width="12" height="6" fill="white"/>
<rect x="2" y="6" width="10" height="1" fill="black"/>
<rect x="1" y="7" width="1" height="1" fill="black"/>
<rect x="12" y="7" width="1" height="1" fill="black"/>
<rect x="12" y="12" width="1" height="1" fill="black"/>
<rect x="6" y="15" width="1" height="1" fill="black"/>
<rect x="7" y="14" width="1" height="1" fill="black"/>
<rect x="8" y="13" width="4" height="1" fill="black"/>
<rect x="4" y="14" width="1" height="1" fill="black"/>
<rect x="1" y="12" width="1" height="1" fill="black"/>
<rect x="1" y="8" width="4" height="1" transform="rotate(90 1 8)" fill="black"/>
<rect x="14" y="8" width="4" height="1" transform="rotate(90 14 8)" fill="black"/>
<rect x="2" y="13" width="2" height="1" fill="black"/>
<rect x="2" y="13" width="2" height="1" fill="black"/>
<rect x="3" y="16" width="3" height="1" fill="black"/>
<rect x="3" y="17" width="2" height="1" transform="rotate(-90 3 17)" fill="black"/>
</svg>
